<svg xmlns="http://www.w3.org/2000/svg" viewBox="0 0 64 64" role="img" aria-label="VitrinIA"><title>VitrinIA</title><path d="M4 22L8 6H56L60 22a9.33 9.33 0 0 1-18.67 0 9.33 9.33 0 0 1-18.66 0A9.33 9.33 0 0 1 4 22z" fill="#0B5563"/><path d="M10 30V54a4 4 0 0 0 4 4H50a4 4 0 0 0 4-4V30" fill="none" stroke="#0B5563" stroke-width="5" stroke-linecap="round" stroke-linejoin="round"/><path d="M32 33C33 39.5 36.5 43 43 44C36.5 45 33 48.5 32 55C31 48.5 27.5 45 21 44C27.5 43 31 39.5 32 33z" fill="#FF6B4A"/></svg>
